<svg aria-hidden="true" style="width:0;height:0;position:absolute;overflow:hidden" xmlns="http://www.w3.org/2000/svg"><defs><symbol id="icon-glass" viewBox="0 0 30 32"><path d="M10.588.025C8.793.15 6.938.748 5.325 1.72c-.685.412-1.242.823-1.85 1.367-.185.165-.46.402-.613.525A7.846 7.846 0 0 0 .799 6.187a7.321 7.321 0 0 0-.74 2.438c-.063.438-.063 1.505-.003 1.975.302 2.342 1.39 4.478 3.205 6.287.627.628 1.153 1.06 1.82 1.5.575.378.825.523 1.343.785 1.34.68 2.442.983 3.725 1.02 1.695.047 3.263-.435 5.275-1.625.527-.313 2.13-1.337 2.188-1.4.015-.015-.008-.005-.05.02-.648.405-1.69.883-2.502 1.145-2.23.72-4.408.645-6.66-.233a18.811 18.811 0 0 1-1.8-.817c-1.03-.515-1.395-.775-2.128-1.505a10.213 10.213 0 0 1-1.982-2.78 9.901 9.901 0 0 1-.925-2.737c-.11-.605-.127-.832-.125-1.598 0-.613.01-.78.055-1.08.143-.945.377-1.69.795-2.533.44-.885 1.125-1.84 1.565-2.183 2.243-1.742 5.23-2.14 8.49-1.127 1.475.458 3.015 1.235 3.973 2.007 1.565 1.258 3.075 3.875 3.617 6.265.275 1.22.31 2.412.1 3.45a6.457 6.457 0 0 1-.575 1.61c-.305.578-.602.97-1.135 1.505l-.415.418.253-.19c.725-.55 1.253-1.072 1.738-1.717.805-1.072 1.28-2.255 1.468-3.65.06-.46.06-1.643-.003-2.1-.317-2.367-1.337-4.482-3.038-6.308-1.538-1.653-3.635-2.703-5.94-2.97a14.328 14.328 0 0 0-1.8-.035z"/><path d="M8.012 1.665c-.845.097-1.445.25-2.112.54a6.745 6.745 0 0 0-2.525 1.933A6.937 6.937 0 0 0 2.052 7a7.908 7.908 0 0 0 0 2.95c.34 1.783 1.27 3.602 2.705 5.287l.265.31.195-.075c.285-.11.668-.3.895-.45.275-.18.67-.582.82-.835.253-.428.34-.752.36-1.34.02-.63-.05-1.107-.292-1.957-.152-.535-.258-.838-.695-2.04-.638-1.755-.857-2.52-.955-3.35a4.272 4.272 0 0 1 .09-1.438c.067-.257.315-.73.497-.95.322-.388.695-.667 1.25-.94a6.727 6.727 0 0 1 1.225-.448l.275-.073-.3.002c-.165.002-.332.008-.375.01zm10.278 15.2c-.31.113-.863.442-1.255.75-.223.172-.475.435-.545.565l-.045.085.385.385c1.203 1.207 2.378 2.848 4.567 6.387 1.948 3.145 2.455 3.925 3.165 4.875.473.63.712.915 1.073 1.275.532.53.872.74 1.277.788 1.145.13 2.073-.262 2.633-1.12.323-.495.527-1.212.538-1.88.005-.22-.005-.29-.055-.438-.293-.848-1.012-1.797-2.465-3.253-1.078-1.078-1.973-1.893-4.525-4.11-2.723-2.365-3.875-3.45-4.455-4.192-.065-.085-.137-.155-.157-.155s-.08.017-.135.038z"/></symbol></defs></svg>