<svg xmlns="http://www.w3.org/2000/svg" width="1605.333" height="1706.667" version="1.0" viewBox="0 0 1204 1280"><path d="M423.5 1c-71.8 5-146 28.9-210.5 67.8-27.4 16.5-49.7 32.9-74 54.7-7.4 6.6-18.4 16.1-24.5 21-34.1 27.6-63.4 64.2-82.5 103C15.9 280.2 7.5 307.7 2.4 345c-2.5 17.5-2.5 60.2-.1 79 12.1 93.7 55.6 179.1 128.2 251.5 25.1 25.1 46.1 42.4 72.8 60 23 15.1 33 20.9 53.7 31.4 53.6 27.2 97.7 39.3 149 40.8 67.8 1.9 130.5-17.4 211-65 21.1-12.5 85.2-53.5 87.5-56 .6-.6-.3-.2-2 .8-25.9 16.2-67.6 35.3-100.1 45.8-89.2 28.8-176.3 25.8-266.4-9.3-23.3-9.1-40.2-16.7-72-32.7-41.2-20.6-55.8-31-85.1-60.2-32.9-33-57.5-67.4-79.3-111.2-18.4-36.7-30.2-71.8-37-109.5-4.4-24.2-5.1-33.3-5-63.9 0-24.5.4-31.2 2.2-43.2 5.7-37.8 15.1-67.6 31.8-101.3 17.6-35.4 45-73.6 62.6-87.3C243.9 45 363.4 29.1 493.8 69.6c59 18.3 120.6 49.4 158.9 80.3 62.6 50.3 123 155 144.7 250.6 11 48.8 12.4 96.5 4 138-4.2 20.8-13.1 45.7-23 64.4-12.2 23.1-24.1 38.8-45.4 60.2l-16.6 16.7 10.1-7.6c29-22 50.1-42.9 69.5-68.7 32.2-42.9 51.2-90.2 58.7-146 2.4-18.4 2.4-65.7-.1-84-12.7-94.7-53.5-179.3-121.5-252.3C671.6 55.1 587.7 13.1 495.5 2.4 479.9.6 440.1-.2 423.5 1z"/><path d="M320.5 66.6c-33.8 3.9-57.8 10-84.5 21.6-38.5 16.7-74.9 44.6-101 77.3-25.5 32.1-44.7 73.6-52.9 114.5-7.4 37.3-7.4 78.7 0 118 13.6 71.3 50.8 144.1 108.2 211.5l10.6 12.4 7.8-3c11.4-4.4 26.7-12 35.8-18 11-7.2 26.8-23.3 32.8-33.4 10.1-17.1 13.6-30.1 14.4-53.6.8-25.2-2-44.3-11.7-78.3-6.1-21.4-10.3-33.5-27.8-81.6-25.5-70.2-34.3-100.8-38.2-134-2.1-18-.7-41.1 3.6-57.5 2.7-10.3 12.6-29.2 19.9-38 12.9-15.5 27.8-26.7 50-37.6 15.1-7.3 31.5-13.3 49-17.9l11-2.9-12 .1c-6.6.1-13.3.3-15 .4zM731.6 674.6c-12.4 4.5-34.5 17.7-50.2 30-8.9 6.9-19 17.4-21.8 22.6l-1.8 3.4 15.4 15.4c48.1 48.3 95.1 113.9 182.7 255.5 77.9 125.8 98.2 157 126.6 195 18.9 25.2 28.5 36.6 42.9 51 21.3 21.2 34.9 29.6 51.1 31.5 45.8 5.2 82.9-10.5 105.3-44.8 12.9-19.8 21.1-48.5 21.5-75.2.2-8.8-.2-11.6-2.2-17.5-11.7-33.9-40.5-71.9-98.6-130.1-43.1-43.1-78.9-75.7-181-164.4-108.9-94.6-155-138-178.2-167.7-2.6-3.4-5.5-6.2-6.3-6.2-.8 0-3.2.7-5.4 1.5z"/></svg>