<svg aria-hidden="true" style="position: absolute; width: 0; height: 0; overflow: hidden;" version="1.1" xmlns="http://www.w3.org/2000/svg" xmlns:xlink="http://www.w3.org/1999/xlink">
<defs>
<symbol id="icon-glass" viewBox="0 0 30 32">
<path d="M10.588 0.025c-1.795 0.125-3.65 0.723-5.263 1.695-0.685 0.412-1.242 0.823-1.85 1.367-0.185 0.165-0.46 0.402-0.613 0.525-0.853 0.69-1.585 1.605-2.063 2.575-0.403 0.817-0.613 1.505-0.74 2.438-0.063 0.438-0.063 1.505-0.003 1.975 0.302 2.342 1.39 4.478 3.205 6.287 0.627 0.628 1.153 1.060 1.82 1.5 0.575 0.378 0.825 0.523 1.343 0.785 1.34 0.68 2.442 0.983 3.725 1.020 1.695 0.047 3.263-0.435 5.275-1.625 0.527-0.313 2.13-1.337 2.188-1.4 0.015-0.015-0.008-0.005-0.050 0.020-0.648 0.405-1.69 0.883-2.502 1.145-2.23 0.72-4.408 0.645-6.66-0.233-0.582-0.227-1.005-0.418-1.8-0.817-1.030-0.515-1.395-0.775-2.128-1.505-0.822-0.825-1.438-1.685-1.982-2.78-0.46-0.918-0.755-1.795-0.925-2.737-0.11-0.605-0.127-0.832-0.125-1.598 0-0.613 0.010-0.78 0.055-1.080 0.143-0.945 0.377-1.69 0.795-2.533 0.44-0.885 1.125-1.84 1.565-2.183 2.243-1.742 5.23-2.14 8.49-1.127 1.475 0.458 3.015 1.235 3.973 2.007 1.565 1.258 3.075 3.875 3.617 6.265 0.275 1.22 0.31 2.412 0.1 3.45-0.105 0.52-0.328 1.143-0.575 1.61-0.305 0.578-0.602 0.97-1.135 1.505l-0.415 0.418 0.253-0.19c0.725-0.55 1.253-1.072 1.738-1.717 0.805-1.072 1.28-2.255 1.468-3.65 0.060-0.46 0.060-1.643-0.003-2.1-0.317-2.367-1.337-4.482-3.038-6.308-1.538-1.653-3.635-2.703-5.94-2.97-0.39-0.045-1.385-0.065-1.8-0.035z"></path>
<path d="M8.012 1.665c-0.845 0.097-1.445 0.25-2.112 0.54-0.963 0.417-1.872 1.115-2.525 1.933-0.637 0.803-1.118 1.84-1.323 2.862-0.185 0.933-0.185 1.967 0 2.95 0.34 1.783 1.27 3.602 2.705 5.287l0.265 0.31 0.195-0.075c0.285-0.11 0.668-0.3 0.895-0.45 0.275-0.18 0.67-0.582 0.82-0.835 0.253-0.428 0.34-0.752 0.36-1.34 0.020-0.63-0.050-1.107-0.292-1.957-0.152-0.535-0.258-0.838-0.695-2.040-0.638-1.755-0.857-2.52-0.955-3.35-0.053-0.45-0.018-1.027 0.090-1.438 0.067-0.257 0.315-0.73 0.497-0.95 0.322-0.388 0.695-0.667 1.25-0.94 0.378-0.183 0.787-0.333 1.225-0.448l0.275-0.073-0.3 0.002c-0.165 0.002-0.332 0.008-0.375 0.010zM18.29 16.865c-0.31 0.113-0.863 0.442-1.255 0.75-0.223 0.172-0.475 0.435-0.545 0.565l-0.045 0.085 0.385 0.385c1.203 1.207 2.378 2.848 4.567 6.387 1.948 3.145 2.455 3.925 3.165 4.875 0.473 0.63 0.712 0.915 1.073 1.275 0.532 0.53 0.872 0.74 1.277 0.788 1.145 0.13 2.073-0.262 2.633-1.12 0.323-0.495 0.527-1.212 0.538-1.88 0.005-0.22-0.005-0.29-0.055-0.438-0.293-0.848-1.012-1.797-2.465-3.253-1.078-1.078-1.973-1.893-4.525-4.11-2.723-2.365-3.875-3.45-4.455-4.192-0.065-0.085-0.137-0.155-0.157-0.155s-0.080 0.017-0.135 0.038z"></path>
</symbol>
</defs>
</svg>
